<svg id="svg" version="1.1" xmlns="http://www.w3.org/2000/svg" xmlns:xlink="http://www.w3.org/1999/xlink" width="400" height="400" viewBox="0, 0, 400,400"><g id="svgg"><path id="path0" d="M140.800 17.389 C 138.600 17.945,136.800 19.480,136.800 20.800 C 136.800 22.687,134.148 23.300,124.400 23.667 C 112.423 24.119,112.000 24.269,112.000 28.067 C 112.000 31.720,111.430 32.000,104.000 32.000 C 96.533 32.000,96.000 32.267,96.000 36.000 C 96.000 39.733,95.467 40.000,88.000 40.000 C 80.533 40.000,80.000 40.267,80.000 44.000 C 80.000 47.200,79.200 48.000,76.000 48.000 C 72.800 48.000,72.000 48.800,72.000 52.000 C 72.000 55.200,71.200 56.000,68.000 56.000 C 64.800 56.000,64.000 56.800,64.000 60.000 C 64.000 63.200,63.200 64.000,60.000 64.000 C 56.800 64.000,56.000 64.800,56.000 68.000 C 56.000 71.200,55.200 72.000,52.000 72.000 C 48.800 72.000,48.000 72.800,48.000 76.000 C 48.000 79.200,47.200 80.000,44.000 80.000 C 40.800 80.000,40.000 80.800,40.000 84.000 C 40.000 87.176,39.194 88.000,36.088 88.000 C 32.555 88.000,32.128 88.738,31.688 95.600 C 31.275 102.028,30.658 103.277,27.684 103.700 C 24.718 104.122,24.091 105.375,23.684 111.700 C 23.272 118.083,22.664 119.276,19.600 119.711 C 16.236 120.189,16.000 121.000,16.000 132.111 C 16.000 143.726,15.908 144.000,12.000 144.000 L 8.000 144.000 8.159 179.600 C 8.247 199.180,8.895 217.000,9.600 219.200 C 10.454 221.867,10.934 222.267,11.041 220.400 C 11.304 215.781,13.928 217.239,15.000 222.600 C 15.550 225.350,16.000 232.190,16.000 237.800 C 16.000 247.613,16.152 248.000,20.000 248.000 C 23.733 248.000,24.000 248.533,24.000 256.000 C 24.000 263.467,24.267 264.000,28.000 264.000 C 31.200 264.000,32.000 264.800,32.000 268.000 C 32.000 271.176,32.806 272.000,35.912 272.000 C 39.445 272.000,39.872 272.738,40.312 279.600 C 40.728 286.086,41.328 287.275,44.400 287.711 C 47.006 288.081,48.000 289.297,48.000 292.111 C 48.000 295.193,48.831 296.000,52.000 296.000 C 55.200 296.000,56.000 296.800,56.000 300.000 C 56.000 303.200,56.800 304.000,60.000 304.000 C 63.176 304.000,64.000 304.806,64.000 307.912 C 64.000 311.445,64.738 311.872,71.600 312.312 C 78.086 312.728,79.275 313.328,79.711 316.400 C 80.081 319.006,81.297 320.000,84.111 320.000 C 87.193 320.000,88.000 320.831,88.000 324.000 C 88.000 327.733,88.533 328.000,96.000 328.000 C 103.467 328.000,104.000 328.267,104.000 332.000 C 104.000 335.911,104.267 336.000,116.000 336.000 C 127.733 336.000,128.000 336.089,128.000 340.000 L 128.000 344.000 168.400 343.841 C 210.397 343.675,215.200 343.198,215.200 339.200 C 215.200 337.351,217.956 336.616,227.200 336.000 C 237.041 335.344,239.204 334.717,239.220 332.513 C 239.250 328.671,240.069 328.221,248.052 327.658 C 253.946 327.242,255.200 326.596,255.200 323.977 C 255.200 321.701,256.447 320.656,259.600 320.294 C 263.056 319.896,264.000 318.952,264.000 315.894 C 264.000 312.837,264.836 312.000,267.889 312.000 C 270.703 312.000,271.919 311.006,272.289 308.400 C 272.626 306.025,274.088 304.618,276.585 304.264 C 278.667 303.970,280.706 302.446,281.116 300.877 C 281.526 299.309,284.624 297.114,288.000 296.000 C 294.155 293.969,295.932 291.207,295.978 283.600 C 295.995 280.806,296.921 280.000,300.111 280.000 C 303.460 280.000,304.128 279.332,303.711 276.400 C 302.875 270.510,288.000 270.048,288.000 275.912 C 288.000 279.206,287.223 280.000,284.000 280.000 C 280.800 280.000,280.000 280.800,280.000 284.000 C 280.000 287.200,279.200 288.000,276.000 288.000 C 272.800 288.000,272.000 288.800,272.000 292.000 C 272.000 295.200,271.200 296.000,268.000 296.000 C 264.800 296.000,264.000 296.800,264.000 300.000 C 264.000 303.169,263.193 304.000,260.111 304.000 C 257.297 304.000,256.081 304.994,255.711 307.600 C 255.275 310.672,254.086 311.272,247.600 311.688 C 240.738 312.128,240.000 312.555,240.000 316.088 C 240.000 319.564,239.310 320.000,233.800 320.000 C 225.634 320.000,217.600 321.661,217.600 323.350 C 217.600 324.092,218.680 324.285,220.000 323.779 C 221.320 323.272,222.400 323.611,222.400 324.531 C 222.400 326.498,213.499 327.843,196.800 328.400 C 185.716 328.769,184.761 329.075,184.289 332.400 C 183.569 337.469,160.000 338.060,160.000 333.009 C 160.000 329.283,153.537 328.042,134.000 328.018 C 120.138 328.000,120.000 327.961,120.000 324.000 C 120.000 320.267,119.467 320.000,112.000 320.000 C 104.533 320.000,104.000 319.733,104.000 316.000 C 104.000 312.267,103.467 312.000,96.000 312.000 C 88.533 312.000,88.000 311.733,88.000 308.000 C 88.000 304.800,87.200 304.000,84.000 304.000 C 80.800 304.000,80.000 303.200,80.000 300.000 C 80.000 296.800,79.200 296.000,76.000 296.000 C 72.800 296.000,72.000 295.200,72.000 292.000 C 72.000 288.800,71.200 288.000,68.000 288.000 C 64.800 288.000,64.000 287.200,64.000 284.000 C 64.000 280.800,63.200 280.000,60.000 280.000 C 56.800 280.000,56.000 279.200,56.000 276.000 C 56.000 272.800,55.200 272.000,52.000 272.000 C 48.800 272.000,48.000 271.200,48.000 268.000 C 48.000 264.800,47.200 264.000,44.000 264.000 C 40.267 264.000,40.000 263.467,40.000 256.000 C 40.000 248.533,39.733 248.000,36.000 248.000 C 32.298 248.000,31.998 247.434,31.978 240.400 C 31.948 230.042,30.661 226.041,27.052 225.098 C 24.281 224.373,22.239 200.196,23.883 187.588 C 24.028 186.482,22.261 184.859,19.956 183.983 C 14.862 182.047,15.162 177.038,20.416 176.289 C 23.908 175.791,24.000 175.268,24.000 155.889 L 24.000 136.000 27.930 136.000 C 31.699 136.000,31.879 135.524,32.330 124.400 C 32.754 113.933,33.135 112.752,36.232 112.311 C 38.938 111.925,39.883 110.355,40.705 104.878 C 41.458 99.856,42.611 97.709,44.873 97.117 C 46.962 96.571,48.000 94.922,48.000 92.150 C 48.000 88.790,48.761 88.000,52.000 88.000 C 55.200 88.000,56.000 88.800,56.000 92.000 C 56.000 95.200,56.800 96.000,60.000 96.000 C 63.200 96.000,64.000 96.800,64.000 100.000 C 64.000 103.200,64.800 104.000,68.000 104.000 L 72.000 104.000 72.000 156.000 L 72.000 208.000 64.000 208.000 C 56.533 208.000,56.000 208.267,56.000 212.000 L 56.000 216.000 80.000 216.000 L 104.000 216.000 104.000 212.000 C 104.000 208.800,103.200 208.000,100.000 208.000 L 96.000 208.000 96.000 184.000 L 96.000 160.000 100.000 160.000 C 103.200 160.000,104.000 160.800,104.000 164.000 C 104.000 167.200,104.800 168.000,108.000 168.000 C 111.396 168.000,112.037 168.785,112.244 173.200 C 112.378 176.060,112.559 179.479,112.646 180.798 C 112.733 182.117,114.243 183.197,116.002 183.198 C 118.301 183.199,119.342 184.437,119.706 187.600 C 120.104 191.056,121.048 192.000,124.106 192.000 C 127.712 192.000,128.000 192.592,128.000 200.000 C 128.000 207.467,128.267 208.000,132.000 208.000 C 135.200 208.000,136.000 208.800,136.000 212.000 L 136.000 216.000 152.000 216.000 L 168.000 216.000 168.000 212.000 C 168.000 208.800,167.200 208.000,164.000 208.000 C 160.800 208.000,160.000 207.200,160.000 204.000 C 160.000 200.800,159.200 200.000,156.000 200.000 C 152.800 200.000,152.000 199.200,152.000 196.000 C 152.000 192.800,151.200 192.000,148.000 192.000 C 144.267 192.000,144.000 191.467,144.000 184.000 C 144.000 176.533,143.733 176.000,140.000 176.000 C 136.800 176.000,136.000 175.200,136.000 172.000 C 136.000 168.800,135.200 168.000,132.000 168.000 C 128.676 168.000,127.959 167.189,127.760 163.200 C 127.628 160.560,127.448 157.500,127.360 156.400 C 127.272 155.300,125.760 154.011,124.000 153.535 C 118.459 152.037,118.383 136.000,123.916 136.000 C 127.206 136.000,128.000 135.222,128.000 132.000 C 128.000 128.824,128.806 128.000,131.912 128.000 C 135.445 128.000,135.872 127.262,136.312 120.400 C 136.721 114.029,137.318 112.800,140.000 112.800 C 142.302 112.800,143.342 111.565,143.706 108.400 C 144.104 104.944,145.048 104.000,148.106 104.000 C 151.165 104.000,152.000 103.165,152.000 100.106 C 152.000 97.048,152.944 96.104,156.400 95.706 C 159.565 95.342,160.800 94.302,160.800 92.000 C 160.800 88.991,159.584 88.773,140.400 88.352 L 120.000 87.904 120.000 91.952 C 120.000 95.203,120.787 96.000,124.000 96.000 C 127.733 96.000,128.000 96.533,128.000 104.000 C 128.000 111.467,127.733 112.000,124.000 112.000 C 120.267 112.000,120.000 112.533,120.000 120.000 C 120.000 127.348,119.691 128.000,116.211 128.000 C 112.987 128.000,112.291 128.975,111.545 134.532 C 110.470 142.549,110.549 142.470,102.532 143.545 L 96.000 144.421 96.000 120.211 L 96.000 96.000 100.000 96.000 C 103.200 96.000,104.000 95.200,104.000 92.000 L 104.000 88.000 80.000 88.000 L 56.000 88.000 56.000 84.000 C 56.000 80.800,56.800 80.000,60.000 80.000 C 63.200 80.000,64.000 79.200,64.000 76.000 C 64.000 72.800,64.800 72.000,68.000 72.000 C 71.200 72.000,72.000 71.200,72.000 68.000 C 72.000 64.800,72.800 64.000,76.000 64.000 C 79.200 64.000,80.000 63.200,80.000 60.000 C 80.000 56.267,80.533 56.000,88.000 56.000 C 95.467 56.000,96.000 55.733,96.000 52.000 C 96.000 48.267,96.533 48.000,104.000 48.000 C 111.467 48.000,112.000 47.733,112.000 44.000 C 112.000 40.267,112.533 40.000,120.000 40.000 C 127.480 40.000,128.000 39.738,128.000 35.974 L 128.000 31.949 171.600 32.374 L 215.200 32.800 215.711 36.400 C 216.163 39.577,217.149 40.000,224.111 40.000 C 231.459 40.000,232.000 40.274,232.000 44.000 C 232.000 47.733,232.533 48.000,240.000 48.000 C 247.467 48.000,248.000 48.267,248.000 52.000 C 248.000 55.239,248.790 56.000,252.150 56.000 C 254.887 56.000,256.571 57.039,257.098 59.052 C 257.913 62.169,261.974 63.939,268.400 63.978 C 271.168 63.995,272.000 64.925,272.000 68.000 C 272.000 71.200,272.800 72.000,276.000 72.000 C 279.200 72.000,280.000 72.800,280.000 76.000 C 280.000 79.200,280.800 80.000,284.000 80.000 C 287.733 80.000,288.000 80.533,288.000 88.000 C 288.000 95.467,288.267 96.000,292.000 96.000 C 295.200 96.000,296.000 96.800,296.000 100.000 C 296.000 103.200,296.800 104.000,300.000 104.000 C 303.733 104.000,304.000 104.533,304.000 112.000 C 304.000 119.467,304.267 120.000,308.000 120.000 C 311.911 120.000,312.000 120.267,312.000 132.000 C 312.000 143.733,312.089 144.000,316.000 144.000 L 320.000 144.000 320.000 164.000 L 320.000 184.000 328.000 184.000 L 336.000 184.000 335.982 174.000 C 335.973 168.500,335.518 161.300,334.973 158.000 C 333.908 151.559,331.200 149.741,331.200 155.467 C 331.200 157.373,330.687 158.421,330.061 157.794 C 329.434 157.167,328.534 148.587,328.061 138.727 C 327.241 121.656,327.028 120.776,323.600 120.289 C 320.423 119.837,320.000 118.851,320.000 111.889 C 320.000 104.541,319.726 104.000,316.000 104.000 C 312.761 104.000,312.000 103.210,312.000 99.850 C 312.000 97.113,310.961 95.429,308.948 94.902 C 305.831 94.087,304.061 90.026,304.022 83.600 C 304.005 80.832,303.075 80.000,300.000 80.000 C 296.800 80.000,296.000 79.200,296.000 76.000 C 296.000 72.800,295.200 72.000,292.000 72.000 C 288.800 72.000,288.000 71.200,288.000 68.000 C 288.000 64.800,287.200 64.000,284.000 64.000 C 280.800 64.000,280.000 63.200,280.000 60.000 C 280.000 56.800,279.200 56.000,276.000 56.000 C 272.800 56.000,272.000 55.200,272.000 52.000 C 272.000 48.831,271.193 48.000,268.111 48.000 C 265.297 48.000,264.081 47.006,263.711 44.400 C 263.275 41.328,262.086 40.728,255.600 40.312 C 248.787 39.875,248.000 39.428,248.000 35.996 C 248.000 32.505,247.258 32.125,239.600 31.684 C 233.415 31.328,231.200 30.567,231.200 28.800 C 231.200 25.445,226.740 24.344,212.400 24.159 C 200.283 24.004,200.000 23.909,200.000 20.000 L 200.000 16.000 172.400 16.189 C 157.220 16.293,143.000 16.833,140.800 17.389 M184.495 186.618 C 183.411 189.442,184.918 191.152,188.513 191.180 C 190.910 191.198,191.247 194.249,191.636 219.484 L 192.073 247.768 188.436 248.284 C 186.039 248.624,184.800 249.890,184.800 252.000 C 184.800 255.035,186.014 255.223,208.400 255.643 L 232.000 256.086 232.000 252.043 C 232.000 248.797,232.789 248.000,236.000 248.000 C 239.911 248.000,240.000 247.733,240.000 236.000 C 240.000 224.267,239.911 224.000,236.000 224.000 C 232.267 224.000,232.000 223.467,232.000 216.000 C 232.000 208.533,232.267 208.000,236.000 208.000 C 239.733 208.000,240.000 207.467,240.000 200.000 C 240.000 192.533,239.733 192.000,236.000 192.000 C 232.784 192.000,232.000 191.204,232.000 187.941 L 232.000 183.882 208.692 184.090 C 189.947 184.258,185.211 184.753,184.495 186.618 M248.000 188.000 C 248.000 191.200,248.800 192.000,252.000 192.000 L 256.000 192.000 256.000 220.000 L 256.000 248.000 252.000 248.000 C 248.800 248.000,248.000 248.800,248.000 252.000 C 248.000 255.911,248.267 256.000,260.000 256.000 C 271.733 256.000,272.000 255.911,272.000 252.000 C 272.000 248.800,271.200 248.000,268.000 248.000 L 264.000 248.000 264.000 216.000 L 264.000 184.000 256.000 184.000 C 248.533 184.000,248.000 184.267,248.000 188.000 M224.000 204.000 L 224.000 216.000 216.000 216.000 L 208.000 216.000 208.000 204.000 L 208.000 192.000 216.000 192.000 L 224.000 192.000 224.000 204.000 M288.000 211.894 C 288.000 215.225,287.233 216.000,283.933 216.000 C 279.886 216.000,279.868 216.063,280.333 228.400 C 280.750 239.473,281.134 240.800,283.924 240.800 C 285.935 240.800,287.387 242.225,288.000 244.800 C 288.613 247.373,290.066 248.801,292.074 248.802 C 294.127 248.804,295.196 249.899,295.198 252.002 C 295.200 254.731,296.431 255.271,303.600 255.684 C 311.553 256.141,312.000 255.961,312.000 252.294 C 312.000 248.973,312.930 248.297,318.532 247.545 C 327.240 246.377,327.119 246.604,327.759 230.269 L 328.318 216.000 324.159 216.000 C 320.789 216.000,320.000 215.241,320.000 212.000 C 320.000 208.267,319.467 208.000,312.000 208.000 C 304.533 208.000,304.000 208.267,304.000 212.000 C 304.000 215.200,304.800 216.000,308.000 216.000 L 312.000 216.000 312.000 232.000 L 312.000 248.000 303.855 248.000 L 295.709 248.000 296.223 228.400 L 296.737 208.800 292.369 208.294 C 288.614 207.859,288.000 208.364,288.000 211.894 M336.000 220.000 C 336.000 231.733,336.089 232.000,340.000 232.000 C 343.911 232.000,344.000 232.267,344.000 244.000 C 344.000 255.733,343.911 256.000,340.000 256.000 C 336.267 256.000,336.000 256.533,336.000 264.000 C 336.000 271.467,336.267 272.000,340.000 272.000 C 343.200 272.000,344.000 272.800,344.000 276.000 C 344.000 279.911,344.267 280.000,356.000 280.000 C 367.733 280.000,368.000 279.911,368.000 276.000 C 368.000 272.800,368.800 272.000,372.000 272.000 C 375.200 272.000,376.000 271.200,376.000 268.000 C 376.000 265.067,376.853 264.000,379.200 264.000 C 380.978 264.000,382.400 262.933,382.400 261.600 C 382.400 260.280,382.394 258.668,382.386 258.017 C 382.379 257.366,381.119 256.826,379.586 256.817 C 377.741 256.806,376.629 255.313,376.294 252.400 C 375.792 248.043,375.673 248.000,363.961 248.000 L 352.135 248.000 351.667 235.600 C 351.246 224.423,350.884 223.200,348.000 223.198 C 345.869 223.196,344.800 222.128,344.800 220.000 C 344.800 217.872,345.869 216.804,348.000 216.802 C 350.301 216.801,351.342 215.564,351.706 212.400 C 352.200 208.112,352.006 208.000,344.106 208.000 L 336.000 208.000 336.000 220.000 M360.000 212.000 C 360.000 215.200,360.800 216.000,364.000 216.000 C 367.200 216.000,368.000 216.800,368.000 220.000 C 368.000 223.200,367.200 224.000,364.000 224.000 C 360.800 224.000,360.000 224.800,360.000 228.000 C 360.000 231.733,360.533 232.000,368.000 232.000 L 376.000 232.000 376.000 220.000 L 376.000 208.000 368.000 208.000 C 360.533 208.000,360.000 208.267,360.000 212.000 M224.000 236.000 L 224.000 248.000 216.000 248.000 L 208.000 248.000 208.000 236.000 L 208.000 224.000 216.000 224.000 L 224.000 224.000 224.000 236.000 M368.000 264.000 L 368.000 272.000 360.000 272.000 C 352.533 272.000,352.000 271.733,352.000 268.000 C 352.000 264.800,351.200 264.000,348.000 264.000 C 344.800 264.000,344.000 263.200,344.000 260.000 C 344.000 256.089,344.267 256.000,356.000 256.000 L 368.000 256.000 368.000 264.000 " stroke="none" fill="#000000" fill-rule="evenodd"></path></g></svg>