<?xml version="1.0" standalone="no"?>
<!DOCTYPE svg PUBLIC "-//W3C//DTD SVG 20010904//EN"
 "http://www.w3.org/TR/2001/REC-SVG-20010904/DTD/svg10.dtd">
<svg version="1.0" xmlns="http://www.w3.org/2000/svg"
 width="800.000000pt" height="800.000000pt" viewBox="0 0 800.000000 800.000000"
 preserveAspectRatio="xMidYMid meet">
<metadata>
Created by potrace 1.16, written by Peter Selinger 2001-2019
</metadata>
<g transform="translate(0.000000,800.000000) scale(0.100000,-0.100000)"
fill="#000000" stroke="none">
<path d="M1080 6745 c0 -3 148 -202 328 -442 181 -241 394 -526 473 -633 80
-107 441 -590 803 -1074 l657 -878 -24 -27 c-164 -179 -2052 -2219 -2140
-2313 l-119 -128 260 0 260 0 169 182 c93 101 540 583 993 1073 453 490 827
891 831 893 6 3 313 -405 1239 -1645 l375 -502 878 -1 878 0 -44 58 c-24 31
-136 181 -249 332 -112 151 -460 617 -773 1035 -934 1248 -1305 1746 -1317
1764 -10 16 129 169 1045 1160 582 627 1057 1143 1057 1146 0 3 -115 5 -255 5
l-254 0 -917 -990 c-504 -544 -919 -990 -923 -990 -3 1 -85 108 -182 238 -97
130 -430 576 -739 990 l-563 752 -873 0 c-481 0 -874 -2 -874 -5z m1706 -578
c336 -450 2607 -3487 3076 -4113 l318 -424 -400 0 -400 0 -458 612 c-252 337
-667 892 -922 1233 -1576 2107 -2145 2869 -2154 2883 -6 9 75 12 391 12 l398
0 151 -203z"/>
</g>
</svg>
